<svg id="Layer_1" data-name="Layer 1" xmlns="http://www.w3.org/2000/svg" xmlns:xlink="http://www.w3.org/1999/xlink" viewBox="0 0 939.36 243.78"><defs><style>.cls-1,.cls-3,.cls-5{fill:none;}.cls-2{clip-path:url(#clip-path);}.cls-3{stroke:#f2f2f2;}.cls-3,.cls-5{stroke-linecap:square;stroke-linejoin:bevel;stroke-width:0.75px;}.cls-4{clip-path:url(#clip-path-2);}.cls-5{stroke:#cbcbcb;stroke-dasharray:0.75 1.5;}.cls-6{clip-path:url(#clip-path-3);}.cls-7{fill:#f17b79;}.cls-8{clip-path:url(#clip-path-4);}.cls-9{clip-path:url(#clip-path-5);}.cls-10{fill:#33b6d6;}.cls-11{font-size:16px;font-family:MyriadPro-Regular, Myriad Pro;}.cls-12{clip-path:url(#clip-path-6);}.cls-13{clip-path:url(#clip-path-7);}</style><clipPath id="clip-path" transform="translate(-310.53 -119.63)"><rect class="cls-1" x="-29" y="120" width="455.09" height="202.7"/></clipPath><clipPath id="clip-path-2" transform="translate(-310.53 -119.63)"><rect class="cls-1" x="779.54" y="124.5" width="545.43" height="202.7"/></clipPath><clipPath id="clip-path-3" transform="translate(-310.53 -119.63)"><rect class="cls-1" x="782.55" y="124.5" width="545.43" height="202.7"/></clipPath><clipPath id="clip-path-4" transform="translate(-310.53 -119.63)"><rect class="cls-1" x="377.53" y="120" width="453.58" height="202.7"/></clipPath><clipPath id="clip-path-5" transform="translate(-310.53 -119.63)"><rect class="cls-1" x="324.83" y="124.5" width="455.09" height="202.7"/></clipPath><clipPath id="clip-path-6" transform="translate(-310.53 -119.63)"><rect class="cls-1" x="779.54" y="122.25" width="455.09" height="202.7"/></clipPath><clipPath id="clip-path-7" transform="translate(-310.53 -119.63)"><rect class="cls-1" x="878.91" y="120" width="455.09" height="202.7"/></clipPath></defs><title>Population Pyramid</title><g class="cls-2"><line class="cls-3" x1="14.74" y1="201.38" x2="14.74" y2="0.38"/><line class="cls-3" x1="64.67" y1="201.38" x2="64.67" y2="0.38"/></g><g class="cls-4"><path class="cls-5" d="M779.54,186.68v-22" transform="translate(-310.53 -119.63)"/><path class="cls-5" d="M779.54,219.61v-22" transform="translate(-310.53 -119.63)"/><path class="cls-5" d="M779.54,288.22V264.91" transform="translate(-310.53 -119.63)"/><path class="cls-5" d="M779.54,322.4V299.09" transform="translate(-310.53 -119.63)"/></g><g class="cls-6"><rect class="cls-7" x="472.02" y="178.86" width="5.65" height="25.34"/><rect class="cls-7" x="472.02" y="145.08" width="3.39" height="25.34"/><rect class="cls-7" x="472.02" y="77.51" width="3.39" height="25.34"/><rect class="cls-7" x="472.02" y="43.73" width="3.39" height="25.34"/></g><g class="cls-8"><line class="cls-3" x1="117.71" y1="201.38" x2="117.71" y2="0.38"/><line class="cls-3" x1="167.48" y1="201.38" x2="167.48" y2="0.38"/><line class="cls-3" x1="218.19" y1="201.38" x2="218.19" y2="0.38"/><line class="cls-3" x1="268.9" y1="201.38" x2="268.9" y2="0.38"/><line class="cls-3" x1="318.67" y1="201.38" x2="318.67" y2="0.38"/><line class="cls-3" x1="369.38" y1="201.38" x2="369.38" y2="0.38"/><line class="cls-3" x1="420.09" y1="201.38" x2="420.09" y2="0.38"/><line class="cls-3" x1="469.87" y1="201.38" x2="469.87" y2="0.38"/></g><g class="cls-9"><rect class="cls-10" x="36.88" y="178.86" width="432.5" height="25.34"/><rect class="cls-10" x="363.24" y="145.08" width="106.15" height="25.34"/><rect class="cls-10" x="348.56" y="111.3" width="120.83" height="25.34"/><rect class="cls-10" x="416.31" y="77.51" width="53.07" height="25.34"/><rect class="cls-10" x="451.32" y="43.73" width="18.07" height="25.34"/><rect class="cls-10" x="464.87" y="9.95" width="4.52" height="25.34"/></g><text class="cls-11" transform="translate(0 230.61) scale(0.67 1)">180</text><text class="cls-11" transform="translate(913.94 227.66) scale(0.67 1)">180</text><text class="cls-11" transform="translate(51.19 229.94) scale(0.67 1)">160</text><text class="cls-11" transform="translate(865.75 227.66) scale(0.67 1)">160</text><text class="cls-11" transform="translate(814.56 227.66) scale(0.67 1)">140</text><text class="cls-11" transform="translate(103.89 230.21) scale(0.67 1)">140</text><text class="cls-11" transform="translate(158.09 230.21) scale(0.67 1)">120</text><text class="cls-11" transform="translate(763.37 227.66) scale(0.67 1)">120</text><text class="cls-11" transform="translate(207.78 228.96) scale(0.67 1)">100</text><text class="cls-11" transform="translate(715.19 227.66) scale(0.67 1)">100</text><text class="cls-11" transform="translate(263.49 227.96) scale(0.67 1)">80</text><text class="cls-11" transform="translate(667.01 227.66) scale(0.67 1)">80</text><text class="cls-11" transform="translate(617.32 227.66) scale(0.67 1)">60</text><text class="cls-11" transform="translate(314.68 227.96) scale(0.67 1)">60</text><g class="cls-12"><line class="cls-3" x1="519.89" y1="203.63" x2="519.89" y2="2.63"/><line class="cls-3" x1="569.82" y1="203.63" x2="569.82" y2="2.63"/><line class="cls-3" x1="620.7" y1="203.63" x2="620.7" y2="2.63"/><line class="cls-3" x1="671.58" y1="203.63" x2="671.58" y2="2.63"/><line class="cls-3" x1="721.52" y1="203.63" x2="721.52" y2="2.63"/><line class="cls-3" x1="772.4" y1="203.63" x2="772.4" y2="2.63"/><line class="cls-3" x1="823.28" y1="203.63" x2="823.28" y2="2.63"/><line class="cls-3" x1="873.21" y1="203.63" x2="873.21" y2="2.63"/></g><text class="cls-11" transform="translate(362.86 227.96) scale(0.67 1)">40</text><text class="cls-11" transform="translate(564.62 227.66) scale(0.67 1)">40</text><text class="cls-11" transform="translate(515.68 227.66) scale(0.67 1)">20</text><text class="cls-11" transform="translate(413.3 227.96) scale(0.67 1)">20</text><g class="cls-13"><line class="cls-3" x1="922.65" y1="201.38" x2="922.65" y2="0.38"/></g><text class="cls-11" transform="translate(470.51 227.66) scale(0.67 1)">0</text></svg>